<svg xmlns="http://www.w3.org/2000/svg" viewBox="0 0 1200 900" fill="none" aria-hidden="true">
  <defs>
    <linearGradient id="a" x1="0" y1="0" x2="1" y2="1">
      <stop offset="0" stop-color="#afa996" stop-opacity="0.2" />
      <stop offset="1" stop-color="#5a5a50" stop-opacity="0.08" />
    </linearGradient>
  </defs>
  <rect width="100%" height="100%" fill="#0a0a0a" />
  <g stroke="url(#a)" stroke-width="1.2" opacity="0.65">
    <path d="M200 200 Q400 50 600 200 T1000 180" fill="none" />
    <path d="M150 420 Q350 300 550 400 T900 360" fill="none" />
    <path d="M250 650 L420 480 L600 600 L800 500 L1000 620" fill="none" />
  </g>
  <g fill="#afa996" opacity="0.12" stroke="none">
    <circle cx="300" cy="180" r="3" />
    <circle cx="600" cy="200" r="2.5" />
    <circle cx="900" cy="150" r="2" />
    <circle cx="500" cy="500" r="2.5" />
    <circle cx="800" cy="400" r="2" />
  </g>
  <g stroke="#afa996" stroke-width="1.2" fill="none" opacity="0.25">
    <path d="M500 200 C520 160 580 160 600 200 C580 250 520 250 500 200 Z" />
    <line x1="500" y1="240" x2="600" y2="240" />
    <rect x="525" y="255" width="50" height="8" rx="2" />
  </g>
  <g fill="#afa996" opacity="0.08" stroke="none">
    <circle cx="400" cy="300" r="2" />
    <circle cx="800" cy="250" r="1.5" />
    <circle cx="200" cy="500" r="1.5" />
    <circle cx="1000" cy="550" r="2" />
  </g>
  <g stroke="#afa996" stroke-width="0.8" opacity="0.15" fill="none" stroke-linecap="round" stroke-linejoin="round">
    <path d="M360 300 L400 320 L360 360 M440 300 L400 320 L440 360" />
    <path d="M800 200 L850 200 L850 150 M850 200 L800 200 L800 250" />
  </g>
  <g opacity="0.08" fill="none" stroke="#afa996" stroke-width="0.6" stroke-dasharray="4 8">
    <rect x="100" y="100" width="1000" height="700" rx="4" />
  </g>
</svg>
